<?xml version="1.0" encoding="utf-8"?>
<!-- Generator: Adobe Illustrator 23.1.1, SVG Export Plug-In . SVG Version: 6.00 Build 0)  -->
<svg version="1.1" id="Capa_1" xmlns="http://www.w3.org/2000/svg" xmlns:xlink="http://www.w3.org/1999/xlink" x="0px" y="0px"
	 viewBox="0 0 533.2 235.3" style="enable-background:new 0 0 533.2 235.3;" xml:space="preserve">
<style type="text/css">
	.st0{fill:#636466;}
	.st1{fill:#007FAF;}
</style>
<g>
	<g>
		<rect x="24.8" y="47.1" class="st0" width="99.6" height="12.5"/>
		<path class="st1" d="M149.4,72h-25v98.3c0,23.5-13.1,48.7-50,48.7c-36.7,0-49.8-25.1-49.8-48.7V72h-25v3.3l9.3,2.9l0,92.1
			c0,39.4,25.3,63.7,65.4,63.7c40.2,0,65.6-24.3,65.6-63.7l-0.2-92.1l9.5-3V72z"/>
		<g>
			<path class="st1" d="M124.4,33.3c0,4.3-3.5,7.7-7.7,7.7c-4.3,0-7.7-3.5-7.7-7.7c0-4.3,3.4-7.7,7.7-7.7
				C121,25.6,124.4,29.1,124.4,33.3z"/>
			<path class="st1" d="M40.2,33.3c0,4.3-3.5,7.7-7.7,7.7c-4.3,0-7.7-3.5-7.7-7.7c0-4.3,3.4-7.7,7.7-7.7
				C36.8,25.6,40.2,29.1,40.2,33.3z"/>
			<path class="st1" d="M96.1,33.3c0,4.3-3.5,7.7-7.7,7.7c-4.3,0-7.7-3.5-7.7-7.7c0-4.3,3.4-7.7,7.7-7.7
				C92.7,25.6,96.1,29.1,96.1,33.3z"/>
			<path class="st1" d="M68.2,33.3c0,4.3-3.5,7.7-7.7,7.7c-4.3,0-7.7-3.5-7.7-7.7c0-4.3,3.4-7.7,7.7-7.7
				C64.7,25.6,68.2,29.1,68.2,33.3z"/>
		</g>
		<polygon class="st1" points="86.9,9.7 78,9.7 78,0.5 71.6,0.5 71.6,9.7 62.4,9.7 62.4,16 71.6,16 71.6,25.5 78,25.5 78,16 
			86.9,16 		"/>
		<g>
			<g>
				<g>
					<path class="st0" d="M58.5,160.6l-5.7,6.8H52l-5.6-6.8V172h-4.6v-18.8h4l6.7,7.8l6.7-7.8h4V172h-4.6V160.6z"/>
					<path class="st0" d="M45.1,179.3h9.3c3.7,0,6.9,2.2,6.9,7c0,4.3-3.2,6.8-6.9,6.8h-4.7v5h-4.6V179.3z M49.7,183.3v5.7h3.9
						c1.6,0,2.9-1.1,2.9-2.8c0-1.8-1.2-2.9-2.9-2.9H49.7z"/>
				</g>
				<path class="st0" d="M95,190.9l-7.2-11.5H93l4.3,7.3l4.3-7.3h5.2l-7.1,11.5v7.3H95V190.9z"/>
				<g>
					<path class="st0" d="M97.3,153c5.5,0,9.7,4.1,9.7,9.7c0,5.5-4.1,9.6-9.7,9.6c-5.5,0-9.6-4.1-9.6-9.6
						C87.7,157.1,91.8,153,97.3,153z M97.3,168c3,0,5.1-2.3,5.1-5.3c0-3-2.1-5.3-5.1-5.3c-3,0-5.1,2.3-5.1,5.3
						C92.2,165.7,94.4,168,97.3,168z"/>
					<rect x="94.9" y="161" class="st0" width="4.9" height="3.2"/>
				</g>
			</g>
			<path class="st0" d="M115.1,142.6c-1.7-0.3-3.8-1.2-6.3-2.3c-7.7-3.4-19.2-8.4-34.2,1.7c-15.1-10.2-26.4-5.2-34-1.7
				c-2.5,1.1-4.7,2.1-6.4,2.3v6.9c3-0.2,6-1.5,9.2-3c7.4-3.3,16.1-8,28.1,0.3l0,62.2c1.1,0.1,1.9,0.1,3.1,0.1c1,0,1.8,0,3.2-0.1
				l0-62.1c12.1-8.4,20.9-3.6,28.3-0.3c3.1,1.4,6.1,2.7,9.1,3V142.6z"/>
		</g>
		<g>
			<path class="st1" d="M66.2,137.8l-22-54.4c-1,0.3-4.4,1.6-5.3,2l20.5,50.8C61.6,136.4,63.9,136.9,66.2,137.8z"/>
			<path class="st1" d="M34.2,120.7v7.8l9.7,10.3c1.7-0.7,3.6-1.4,5.6-1.9L34.2,120.7z"/>
			<path class="st1" d="M34.2,101.8v4.4l19.2,30c0.9-0.1,1.8-0.2,2.7-0.2L34.2,101.8z"/>
			<path class="st1" d="M75.7,78.3c-0.4,0-1.9,0-2.3,0c-0.2,0-1.6,0-1.6,0l0,0c0,0,0,0,0,0v62c0.8,0.5,1.9,1.2,2.8,1.8
				c0.9-0.6,2-1.3,2.9-1.8v-62C77.4,78.4,75.9,78.3,75.7,78.3z"/>
			<path class="st1" d="M59.1,79.6c-0.8,0.1-1.5,0.3-2.3,0.4L68,138.5c0.9,0.4,1.8,0.8,2.7,1.3L59.1,79.6z"/>
			<path class="st1" d="M83,137.8l22-54.4c1,0.3,4.4,1.6,5.3,2l-20.5,50.8C87.6,136.4,85.3,136.9,83,137.8z"/>
			<path class="st1" d="M115,120.7v7.8l-9.7,10.3c-1.7-0.7-3.6-1.4-5.6-1.9L115,120.7z"/>
			<path class="st1" d="M115,101.8v4.4l-19.2,30c-0.9-0.1-1.8-0.2-2.7-0.2L115,101.8z"/>
			<path class="st1" d="M90.1,79.6c0.8,0.1,1.5,0.3,2.3,0.4l-11.2,58.4c-0.9,0.4-1.8,0.8-2.7,1.3L90.1,79.6z"/>
		</g>
		<path class="st0" d="M173.5,85.9c0,3.4,1.8,5.5,5.2,5.5c3.5,0,5.3-2.2,5.3-5.5V72.7h5.9v13.6c0,5.7-3.9,10.6-11.1,10.6
			c-7.1,0-11-4.5-11-10.6V72.7h5.9V85.9z"/>
		<path class="st0" d="M204,82.1v14.5h-5.9V72.7h5.1l12,14.5V72.7h5.9v23.8H216L204,82.1z"/>
		<path class="st0" d="M229.9,72.7h5.9v23.8h-5.9V72.7z"/>
		<path class="st0" d="M241.9,72.7h6.4l6.3,18.2l6.4-18.2h6.5l-9.2,23.8h-7.5L241.9,72.7z"/>
		<path class="st0" d="M273.4,96.6V72.7h17.7v5.1h-12.1V82h9.5v4.9h-9.5v4.6h12.1v5.1H273.4z"/>
		<path class="st0" d="M321.4,96.7c0,0-0.4,0.2-1.5,0.2c-5.5,0-10.2-6.1-11.9-8.4h-2v8.1h-5.9V72.7h11.3c5.3,0,9.1,2.3,9.1,7.8
			c0,3.8-2.6,6.4-6.2,7.2c2,2,4.2,4.1,6.4,4.1h0.6V96.7z M306.1,77.9v5.9h5.3c1.9,0,3.2-1.2,3.2-2.9c0-1.8-1.2-2.9-3.2-2.9H306.1z"
			/>
		<path class="st0" d="M333.8,86.3c-3.7-1-5.5-3.2-5.5-6.4c0-4.1,3.3-7.4,9.7-7.4c6.1,0,8.1,2.8,9.1,4.8l-3.9,2.9
			c-0.6-0.8-1.9-2.6-5.4-2.6c-2.4,0-3.5,0.8-3.5,2c0,1.1,0.7,1.5,2.2,1.9l4.2,1.3c4.4,1.3,6.4,3.3,6.4,6.6c0,4.6-3.9,7.7-9.8,7.7
			c-3.5,0-7-1.2-8.6-2.1l1.4-5.3c1.8,1.2,4.6,2.3,7.3,2.3c2.4,0,3.7-1,3.7-2.3c0-1.1-1.1-1.6-2.8-2.1L333.8,86.3z"/>
		<path class="st0" d="M354.6,72.7h5.9v23.8h-5.9V72.7z"/>
		<path class="st0" d="M369.4,72.7h10.4c8.4,0,12.2,3.2,12.2,11.9c0,8.7-3.8,11.9-12.2,11.9h-10.4V72.7z M375.3,77.9v13.6h4.2
			c5.3,0,6.6-1.7,6.6-6.8c0-5.1-1.3-6.8-6.6-6.8H375.3z"/>
		<path class="st0" d="M405.8,72.7h6.9l9,23.8h-6l-1.6-4.4h-10l-1.6,4.4h-6L405.8,72.7z M405.6,87.9h7l-3.4-9.3L405.6,87.9z"/>
		<path class="st0" d="M427.6,72.7H438c8.4,0,12.2,3.2,12.2,11.9c0,8.7-3.8,11.9-12.2,11.9h-10.4V72.7z M433.5,77.9v13.6h4.2
			c5.3,0,6.6-1.7,6.6-6.8c0-5.1-1.3-6.8-6.6-6.8H433.5z"/>
		<path class="st1" d="M197.2,129.2c-1.7-3.4-3.9-5.9-8.8-5.9c-6.6,0-10.9,4.4-10.9,12c0,7.4,4.5,11.8,11,11.8
			c5.2,0,9.7-2.6,12.1-4.9l4.8,7.6c-3.7,3.5-10.3,6.7-17.2,6.7c-12.3,0-21.2-7.9-21.2-21.3c0-13.5,9.1-21.4,21.4-21.4
			c9.5,0,15,5,17,10.5L197.2,129.2z"/>
		<path class="st1" d="M251.3,156.3c0,0-0.7,0.3-2.7,0.3c-9.5,0-17.7-10.6-20.7-14.7h-3.4V156h-10.2v-41.5H234
			c9.1,0,15.9,4,15.9,13.7c0,6.5-4.6,11.2-10.9,12.5c3.5,3.5,7.4,7.1,11.2,7.1h1V156.3z M224.5,123.4v10.2h9.3
			c3.4,0,5.5-2.1,5.5-5.1c0-3.2-2.1-5.1-5.5-5.1H224.5z"/>
		<path class="st1" d="M262.2,114.5h10.2V156h-10.2V114.5z"/>
		<path class="st1" d="M291.1,138.1c-6.5-1.8-9.6-5.5-9.6-11.2c0-7.2,5.7-12.9,17-12.9c10.6,0,14.1,4.9,15.9,8.3l-6.8,5.1
			c-1-1.3-3.3-4.6-9.4-4.6c-4.2,0-6.1,1.4-6.1,3.4c0,1.8,1.2,2.6,3.8,3.3l7.3,2.2c7.6,2.3,11.1,5.7,11.1,11.5
			c0,8-6.7,13.5-17.1,13.5c-6.2,0-12.2-2.1-14.9-3.6l2.4-9.3c3.1,2.1,8,4.1,12.7,4.1c4.1,0,6.4-1.7,6.4-4c0-1.8-1.8-2.8-4.8-3.7
			L291.1,138.1z"/>
		<path class="st1" d="M342.7,123.4V156h-10.2v-32.5h-12.7v-9h35.4v9H342.7z"/>
		<path class="st1" d="M381.1,113.9c12.3,0,21.4,9.1,21.4,21.4c0,12.1-9.1,21.3-21.4,21.3c-12.1,0-21.3-9.1-21.3-21.3
			C359.9,123,369,113.9,381.1,113.9z M381.2,146.9c6.7,0,11.3-5.1,11.3-11.6c0-6.7-4.6-11.7-11.3-11.7c-6.5,0-11.3,5-11.3,11.7
			C369.9,141.9,374.7,146.9,381.2,146.9z M385,110.8h-8.5l4.9-9.6h10.1L385,110.8z"/>
		<path class="st1" d="M411.8,114.5h18.4c9.2,0,14.6,3.5,14.6,11.2c0,4.1-2.3,7.1-6,8.7c5.8,1.2,9.3,4.5,9.3,10.4
			c0,7-5.4,11.2-15.1,11.2h-21.2V114.5z M428.5,130.8c3.7,0,5.7-1.2,5.7-4c0-2.9-1.9-4.1-5.6-4.1H422v8.1H428.5z M431.4,147.8
			c3.8,0,5.7-1.5,5.7-4.3c0-3.1-2.2-4.5-6.2-4.5H422v8.7H431.4z"/>
		<path class="st1" d="M467.6,114.5h12l15.7,41.5H485l-2.8-7.6h-17.4L462,156h-10.4L467.6,114.5z M467.4,140.8h12.3l-6-16.2
			L467.4,140.8z"/>
		<path class="st1" d="M502.1,156v-41.5h10.2v32.6H533v8.9H502.1z"/>
		<path class="st1" d="M197.1,188.6c-1.7-3.4-3.9-5.9-8.8-5.9c-6.6,0-10.9,4.4-10.9,11.9c0,7.4,4.4,11.8,11,11.8
			c5.2,0,9.7-2.6,12.1-4.9l4.7,7.6c-3.7,3.5-10.3,6.7-17.2,6.7c-12.2,0-21.2-7.9-21.2-21.3c0-13.5,9.1-21.4,21.4-21.4
			c9.5,0,15,5,16.9,10.5L197.1,188.6z"/>
		<path class="st1" d="M233,173.3c12.2,0,21.4,9.1,21.4,21.4c0,12.1-9.1,21.3-21.4,21.3c-12.1,0-21.3-9.1-21.3-21.3
			C211.8,182.4,220.9,173.3,233,173.3z M233.1,206.3c6.7,0,11.3-5.1,11.3-11.6c0-6.7-4.6-11.7-11.3-11.7c-6.5,0-11.3,5-11.3,11.7
			C221.8,201.3,226.6,206.3,233.1,206.3z"/>
		<path class="st1" d="M263.6,215.3v-41.4h10.2v32.5h20.6v8.9H263.6z"/>
		<path class="st1" d="M360.5,190.2v25.2h-10.2v-41.4h8.9l20.8,25.2v-25.2h10.2v41.4h-8.8L360.5,190.2z"/>
		<path class="st1" d="M319.7,173.3c12.2,0,21.4,9.1,21.4,21.4c0,12.1-9.1,21.3-21.4,21.3c-12.1,0-21.3-9.1-21.3-21.3
			C298.4,182.4,307.6,173.3,319.7,173.3z M319.7,206.3c6.7,0,11.3-5.1,11.3-11.6c0-6.7-4.6-11.7-11.3-11.7c-6.5,0-11.3,5-11.3,11.7
			C308.5,201.2,313.2,206.3,319.7,206.3z M323.6,170.2h-8.5l4.9-9.6h10L323.6,170.2z"/>
	</g>
	<path class="st0" d="M134.5,53.3c0-3.9,3-6.9,6.8-6.9c3.8,0,6.7,3,6.7,6.9c0,4-3,7-6.7,7C137.5,60.3,134.5,57.4,134.5,53.3z
		 M141.3,61.7c4.5,0,8.4-3.5,8.4-8.3c0-4.8-3.9-8.3-8.4-8.3c-4.6,0-8.5,3.5-8.5,8.3C132.9,58.2,136.7,61.7,141.3,61.7z M139.6,54
		h1.7l2.5,4.2h1.6l-2.7-4.2c1.4-0.2,2.5-0.9,2.5-2.6c0-1.9-1.1-2.7-3.4-2.7h-3.7v9.6h1.5V54z M139.6,52.8v-3h2c1,0,2.1,0.2,2.1,1.4
		c0,1.5-1.1,1.6-2.3,1.6H139.6z"/>
</g>
</svg>
